Coordinates
version=1
nRows=16
nColumns=36
inDegrees=yes

Units are S.I. units (second, meters, Newtons, ...)
If the header above contains a line with 'inDegrees', this indicates whether rotational values are in degrees (yes) or radians (no).

endheader
time	pelvis_tilt	pelvis_list	pelvis_rotation	pelvis_tx	pelvis_ty	pelvis_tz	hip_flexion_r	hip_adduction_r	hip_rotation_r	knee_angle_r	knee_angle_r_beta	ankle_angle_r	subtalar_angle_r	mtp_angle_r	hip_flexion_l	hip_adduction_l	hip_rotation_l	knee_angle_l	knee_angle_l_beta	ankle_angle_l	subtalar_angle_l	mtp_angle_l	lumbar_extension	lumbar_bending	lumbar_rotation	arm_flex_r	arm_add_r	arm_rot_r	elbow_flex_r	pro_sup_r	arm_flex_l	arm_add_l	arm_rot_l	elbow_flex_l	pro_sup_l
      2.97916670	    -27.86544690	      2.31528583	      2.86977208	      0.18145198	      0.71306619	     -0.07476866	     75.80474722	     -4.00525745	     11.59411764	     79.55490183	      1.38849497	     22.12601080	    -24.00106391	     -7.49999987	     76.76565169	     -2.37857079	     -1.73370097	     74.88553226	      1.30699910	     13.25754715	    -34.13771170	     -7.49999987	    -23.78443160	      5.51027017	      1.02720958	     38.01146308	    -13.80053204	     13.15628199	     95.91102556	     97.10941826	     18.01751046	    -20.86557225	    -60.23342410	     86.87496012	     74.35266288
      2.98333330	    -26.96803321	      2.36688864	      2.97863059	      0.18545640	      0.72034150	     -0.08040474	     73.89840667	     -4.36351646	     11.44684971	     78.71502673	      1.37383639	     21.71026025	    -24.40774254	     -7.49999987	     74.99791025	     -2.07093347	     -1.82461888	     74.14734083	      1.29411523	     12.92715954	    -34.21174729	     -7.49999987	    -24.13120396	      5.48884934	      0.79581571	     38.94283377	    -14.68957299	     13.15134510	     95.79488806	     97.06181055	     18.89313186	    -21.27381175	    -60.64155996	     87.41103731	     74.28354102
      2.98750000	    -26.39769782	      2.41217080	      3.14159337	      0.18898605	      0.72095483	     -0.08502890	     72.58289695	     -4.87643795	     11.48680311	     78.09757487	      1.36305982	     21.49662725	    -24.37455622	     -7.49999987	     73.66897743	     -1.52803685	     -1.88657082	     73.48443211	      1.28254529	     13.23138505	    -34.17247162	     -7.49999987	    -23.91055843	      5.69129223	      0.20316117	     40.09820386	    -15.60946001	     13.85310504	     95.70301114	     95.60976428	     18.92062029	    -21.77467724	    -61.33070410	     87.31274220	     73.35079279
      2.99166670	    -25.65685557	      2.29645853	      3.34618151	      0.18436739	      0.72781232	     -0.07972456	     71.44409317	     -5.02726248	     11.36532654	     77.51046156	      1.35281276	     21.05197676	    -24.49719226	     -7.49999987	     72.41862538	     -1.35740359	     -1.86024212	     72.73968771	      1.26954705	     13.06380687	    -34.19869621	     -7.49999987	    -24.18519730	      5.70807812	     -0.03138426	     40.74453164	    -16.38958344	     13.75387737	     96.24764285	     95.56159302	     19.39866437	    -22.57231823	    -61.32642668	     87.54210588	     73.21880665
      2.99583330	    -25.43718529	      2.03283664	      3.51285484	      0.18857221	      0.72803952	     -0.07622240	     70.84243942	     -4.83520682	     11.13120977	     77.23758613	      1.34805018	     21.23483722	    -24.57513583	     -7.49999987	     71.88573968	     -1.49698995	     -1.48832653	     72.32618447	      1.26233005	     12.92710401	    -34.11171379	     -7.49999987	    -23.55472287	      5.56623935	     -0.19718802	     40.84103538	    -16.92972819	     13.61070543	     96.39840887	     95.54379595	     19.53038940	    -23.58845520	    -61.42978146	     87.82706245	     73.18576636
      3.00000000	    -24.51411823	      2.02340102	      3.68048559	      0.19195662	      0.73286374	     -0.08981551	     69.42828225	     -5.40507391	     11.04781410	     76.82355713	      1.34082401	     21.29373911	    -24.25081870	     -7.49999987	     70.66741335	     -0.96932038	     -1.37415113	     72.00110406	      1.25665633	     12.67046552	    -34.20595465	     -7.49999987	    -23.68866715	      5.65165906	     -0.39420414	     41.76369220	    -17.73713687	     14.21049050	     96.45158947	     92.61217866	     19.68274279	    -24.46397698	    -60.61373083	     89.33707514	     71.86259815
      3.00416670	    -23.80170445	      1.74024379	      3.92963287	      0.18803924	      0.73633453	     -0.07665967	     68.48372902	     -5.28801548	     10.65081093	     76.57226044	      1.33643806	     21.30211181	    -24.06131868	     -7.49999987	     69.71357943	     -1.22203960	     -1.00277005	     71.51368881	      1.24814933	     12.46099545	    -34.19097503	     -7.49999987	    -24.08533732	      5.41282566	     -0.64003470	     42.52342028	    -18.33749233	     14.26323101	     97.81226638	     90.55477310	     20.47260966	    -25.62091219	    -60.40321778	     92.32437695	     70.62300934
      3.00833330	    -23.14528088	      1.63148641	      4.12106178	      0.19248008	      0.74260045	     -0.08197147	     67.26833628	     -5.47981087	     10.27201281	     76.03483453	      1.32705821	     21.32871718	    -23.89056475	     -7.49999987	     68.64113689	     -1.17823617	     -1.03437943	     71.12001271	      1.24127839	     12.20871873	    -34.19307470	     -7.49999987	    -24.10908302	      5.39617972	     -0.86672194	     43.57312159	    -18.73853622	     13.84803268	     97.86235364	     90.62179085	     20.81236341	    -26.97844188	    -59.67820768	     93.63405879	     70.42389614
      3.01250000	    -22.53816492	      1.59628015	      4.24855821	      0.18490433	      0.74863221	     -0.07283744	     66.47501192	     -5.21959297	     10.01292695	     75.42007443	      1.31632862	     20.84199413	    -24.14113449	     -7.49999987	     67.67873778	     -1.44082007	     -0.97408820	     70.01446486	      1.22198294	     11.55989753	    -34.13481506	     -7.49999987	    -24.76843366	      4.90878038	     -0.94010830	     45.68789848	    -19.23577378	     13.95664825	     98.02982007	     90.65321377	     21.29377781	    -29.66960768	    -58.31168563	     95.17630352	     70.21364392
      3.01666670	    -21.88967164	      1.34276082	      4.49883646	      0.18976073	      0.74897594	     -0.06846810	     65.50696321	     -4.81210881	      9.50149642	     75.15524858	      1.31170654	     20.74340263	    -24.57346170	     -7.49999987	     66.70827187	     -1.83736386	     -0.67993602	     69.32889721	      1.21001752	     11.04305634	    -33.98629688	     -7.49999987	    -25.21167983	      4.85235727	     -1.04781282	     48.17424905	    -20.01434626	     14.64150188	     98.34628270	     90.55943402	     22.13665270	    -32.86558089	    -57.01943737	     95.46370307	     69.61687335
      3.02083330	    -21.42547703	      1.30613144	      4.69724515	      0.19438017	      0.74930885	     -0.07458054	     64.59877125	     -4.86860946	      9.31217068	     74.83932234	      1.30619258	     20.62288188	    -24.89406982	     -7.49999987	     66.03201053	     -1.88506037	     -0.56826534	     68.97149029	      1.20377960	     10.85330593	    -33.88077517	     -7.49999987	    -25.17417923	      4.86320627	     -1.04256540	     50.45397293	    -20.75379270	     15.21837412	     99.05185639	     90.48256585	     22.68644050	    -35.43473502	    -55.92616709	     95.66096681	     69.25614970
      3.02500000	    -21.05207291	      1.22318201	      4.88883971	      0.20269692	      0.75311698	     -0.07553584	     63.17055722	     -5.02518164	      9.11152452	     73.89743176	      1.28975349	     20.41797277	    -25.18917989	     -7.49999987	     64.82028089	     -1.80559990	     -0.14501410	     68.21808297	      1.19063016	     10.60732491	    -33.73096096	     -7.49999987	    -24.71733863	      5.06033742	     -0.98420984	     51.76547654	    -21.51222441	     15.72508882	     99.50222579	     90.36317464	     22.64479155	    -37.26046518	    -54.81615727	     95.15929362	     68.80926266
      3.02916670	    -20.96385095	      1.20330590	      5.07831725	      0.19826423	      0.75291639	     -0.07090254	     62.76623297	     -4.90961689	      9.14558937	     73.75405909	      1.28725117	     20.33088704	    -25.59604834	     -7.49999987	     64.32766210	     -1.80629536	     -0.03297596	     68.00809158	      1.18696512	     10.71848660	    -33.39223961	     -7.49999987	    -23.92365729	      4.94503434	     -1.15543276	     52.94558768	    -22.05209234	     16.13473995	    100.20750812	     90.27174824	     23.32808497	    -39.46838106	    -54.26649841	     95.60163095	     68.52640139
      3.03333330	    -20.58020056	      1.27562702	      5.14472299	      0.20255888	      0.75996680	     -0.07561718	     61.82630109	     -4.94422842	      9.34135262	     73.28247612	      1.27902049	     19.92055911	    -26.11187399	     -7.49999987	     63.16597902	     -1.57795452	      0.12968792	     67.08590190	      1.17086987	     10.56106132	    -33.06196038	     -7.49999987	    -23.46564690	      4.90921796	     -1.03907308	     54.32726112	    -23.24359974	     16.97598531	    101.30340480	     89.94208782	     23.27572070	    -41.29035231	    -53.41076014	     95.75986976	     67.73519016
      3.03750000	    -20.41774416	      1.27395779	      5.51142847	      0.20713276	      0.76092299	     -0.07233360	     61.00845906	     -5.00189998	      9.33084825	     72.77695697	      1.27019752	     19.67406599	    -26.32072705	     -7.49999987	     62.26117490	     -1.43423407	      0.17409442	     66.32569939	      1.15760183	     10.62512395	    -32.54217628	     -7.49999987	    -22.54271575	      4.88962946	     -1.11876543	     55.74593641	    -24.66205596	     17.48171135	    101.34890724	     89.58195327	     23.55134053	    -42.89281625	    -52.43760157	     95.73426863	     66.96019868
      3.04166670	    -20.60929200	      1.22579684	      5.56496183	      0.21132707	      0.76349400	     -0.07639887	     60.45478858	     -5.17643190	      9.18540625	     72.06532952	      1.25777728	     19.69315000	    -26.29935606	     -7.49999987	     61.80750474	     -1.38342699	      0.07916847	     65.94456272	      1.15094974	     10.81565802	    -32.54676086	     -7.49999987	    -21.10666179	      4.94993933	     -1.27235188	     56.96249280	    -25.33066192	     17.25492561	    101.59470070	     89.52545531	     23.93046791	    -43.94584629	    -52.40603709	     95.91601870	     66.86343498
